<?xml version="1.0" encoding="UTF-8" standalone="no"?>
<!-- Created with Inkscape (http://www.inkscape.org/) -->

<svg
   xmlns:dc="http://purl.org/dc/elements/1.1/"
   xmlns:cc="http://creativecommons.org/ns#"
   xmlns:rdf="http://www.w3.org/1999/02/22-rdf-syntax-ns#"
   xmlns:svg="http://www.w3.org/2000/svg"
   xmlns="http://www.w3.org/2000/svg"
   xmlns:xlink="http://www.w3.org/1999/xlink"
   xmlns:sodipodi="http://sodipodi.sourceforge.net/DTD/sodipodi-0.dtd"
   xmlns:inkscape="http://www.inkscape.org/namespaces/inkscape"
   width="210mm"
   height="297mm"
   id="svg2"
   version="1.1"
   inkscape:version="0.48.4 r9939"
   sodipodi:docname="Logo.svg">
  <defs
     id="defs4">
    <linearGradient
       inkscape:collect="always"
       xlink:href="#linearGradient4671"
       id="linearGradient1475"
       gradientUnits="userSpaceOnUse"
       gradientTransform="matrix(0.60251392,0,0,0.63049578,264.55695,318.95642)"
       x1="157.66736"
       y1="170.72266"
       x2="115.38457"
       y2="139.67622" />
    <linearGradient
       id="linearGradient4671">
      <stop
         style="stop-color:#ffd43b;stop-opacity:1;"
         offset="0"
         id="stop4673" />
      <stop
         style="stop-color:#ffe873;stop-opacity:1"
         offset="1"
         id="stop4675" />
    </linearGradient>
    <linearGradient
       inkscape:collect="always"
       xlink:href="#linearGradient4689"
       id="linearGradient1478"
       gradientUnits="userSpaceOnUse"
       gradientTransform="matrix(0.562541,0,0,0.567972,-9.399749,-5.305317)"
       x1="26.648937"
       y1="20.603781"
       x2="135.66525"
       y2="114.39767" />
    <linearGradient
       id="linearGradient4689">
      <stop
         style="stop-color:#5a9fd4;stop-opacity:1;"
         offset="0"
         id="stop4691" />
      <stop
         style="stop-color:#306998;stop-opacity:1;"
         offset="1"
         id="stop4693" />
    </linearGradient>
    <linearGradient
       y2="83.273483"
       x2="148.23512"
       y1="35.721245"
       x1="67.052094"
       gradientTransform="matrix(0.562541,0,0,0.567972,280.26399,312.44951)"
       gradientUnits="userSpaceOnUse"
       id="linearGradient3058"
       xlink:href="#linearGradient4689"
       inkscape:collect="always" />
    <linearGradient
       inkscape:collect="always"
       xlink:href="#linearGradient4671-6"
       id="linearGradient1475-8"
       gradientUnits="userSpaceOnUse"
       gradientTransform="matrix(0.562541,0,0,0.567972,421.3725,315.74432)"
       x1="150.96111"
       y1="192.35176"
       x2="112.03144"
       y2="137.27299" />
    <linearGradient
       id="linearGradient4671-6">
      <stop
         style="stop-color:#ffd43b;stop-opacity:1;"
         offset="0"
         id="stop4673-1" />
      <stop
         style="stop-color:#ffe873;stop-opacity:1"
         offset="1"
         id="stop4675-6" />
    </linearGradient>
    <linearGradient
       inkscape:collect="always"
       xlink:href="#linearGradient4689-7"
       id="linearGradient1478-6"
       gradientUnits="userSpaceOnUse"
       gradientTransform="matrix(0.562541,0,0,0.567972,-9.399749,-5.305317)"
       x1="26.648937"
       y1="20.603781"
       x2="135.66525"
       y2="114.39767" />
    <linearGradient
       id="linearGradient4689-7">
      <stop
         style="stop-color:#5a9fd4;stop-opacity:1;"
         offset="0"
         id="stop4691-0" />
      <stop
         style="stop-color:#306998;stop-opacity:1;"
         offset="1"
         id="stop4693-4" />
    </linearGradient>
    <linearGradient
       y2="114.39767"
       x2="135.66525"
       y1="20.603781"
       x1="26.648937"
       gradientTransform="matrix(0.562541,0,0,0.567972,421.3725,315.74432)"
       gradientUnits="userSpaceOnUse"
       id="linearGradient3080"
       xlink:href="#linearGradient4689-7"
       inkscape:collect="always" />
  </defs>
  <sodipodi:namedview
     id="base"
     pagecolor="#ffffff"
     bordercolor="#666666"
     borderopacity="1.0"
     inkscape:pageopacity="0.0"
     inkscape:pageshadow="2"
     inkscape:zoom="0.49497475"
     inkscape:cx="989.49383"
     inkscape:cy="408.94106"
     inkscape:document-units="px"
     inkscape:current-layer="layer1"
     showgrid="false"
     inkscape:window-width="1033"
     inkscape:window-height="612"
     inkscape:window-x="564"
     inkscape:window-y="269"
     inkscape:window-maximized="0" />
  <metadata
     id="metadata7">
    <rdf:RDF>
      <cc:Work
         rdf:about="">
        <dc:format>image/svg+xml</dc:format>
        <dc:type
           rdf:resource="http://purl.org/dc/dcmitype/StillImage" />
        <dc:title></dc:title>
      </cc:Work>
    </rdf:RDF>
  </metadata>
  <g
     inkscape:label="Ebene 1"
     inkscape:groupmode="layer"
     id="layer1">
    <path
       style="fill:#ffffff;stroke:#c1c1c1;stroke-width:2.6905818;stroke-linecap:butt;stroke-linejoin:miter;stroke-miterlimit:4;stroke-opacity:1;stroke-dasharray:none"
       d="m 306.65442,326.48667 73.87247,0.0901 0.0901,15.41128 c 25.55541,3.10039 26.30157,45.41533 1.84203,48.28081 l -0.0637,50.66162 -73.97054,-0.89611 0.58862,-16.98607 c -19.92481,0.16162 -35.25068,-36.76239 -2.65441,-46.47086 l 0.29544,-50.09073 z"
       id="path3765"
       inkscape:connector-curvature="0"
       sodipodi:nodetypes="cccccccccc" />
    <rect
       style="fill:#f4d7d7;fill-opacity:0;stroke:none"
       id="rect3763"
       width="110.87926"
       height="110.87926"
       x="288.39014"
       y="328.55557"
       inkscape:export-filename="D:\Projekte\PyLinX\Aptana-Projekte\PyLinX2\icons\pylinx_16.png"
       inkscape:export-xdpi="5.4245286"
       inkscape:export-ydpi="5.4245286" />
    <rect
       style="fill:none;stroke:none"
       id="rect3757"
       width="114.27906"
       height="113.13192"
       x="287.95529"
       y="327.59653"
       inkscape:export-filename="D:\Projekte\PyLinX\Aptana-Projekte\PyLinX2\icons\pylinx_16.png"
       inkscape:export-xdpi="5.4245286"
       inkscape:export-ydpi="5.4245286" />
    <path
       style="fill:none;stroke:#5a5a5a;stroke-width:6.45739603;stroke-linecap:butt;stroke-linejoin:miter;stroke-miterlimit:4;stroke-opacity:1;stroke-dasharray:none"
       d="m 375.79774,348.53735 c 23.30967,-0.24776 22.23079,35.78306 3.06583,34.60535 l -69.59998,0.61861 c -19.25378,0.17115 -20.52723,31.74408 4.34864,32.61479"
       id="path3761"
       inkscape:connector-curvature="0"
       sodipodi:nodetypes="ccsc"
       inkscape:export-filename="D:\Projekte\PyLinX\Aptana-Projekte\PyLinX2\icons\pylinx_16.png"
       inkscape:export-xdpi="5.4245286"
       inkscape:export-ydpi="5.4245286" />
    <path
       inkscape:connector-curvature="0"
       style="fill:url(#linearGradient3058);fill-opacity:1"
       d="m 310.1199,330.5043 0.005,40.01962 66.9191,-0.0251 -0.006,-40.10429 z"
       id="path1948"
       sodipodi:nodetypes="ccccc" />
    <path
       inkscape:connector-curvature="0"
       style="fill:url(#linearGradient3080);fill-opacity:1"
       d="m 491.2824,327.44761 c -4.58365,0.0213 -8.96094,0.41222 -12.8125,1.09375 -11.34622,2.00451 -13.40625,6.20011 -13.40625,13.9375 l 0,10.21875 26.8125,0 0,3.40625 -26.8125,0 -10.0625,0 c -7.79246,0 -14.61576,4.68372 -16.75,13.59375 -2.46182,10.21297 -2.57101,16.58603 0,27.25 1.90593,7.93786 6.45754,13.59375 14.25,13.59375 l 9.21875,0 0,-12.25 c 0,-8.8499 7.65714,-16.65624 16.75,-16.65625 l 26.78125,0 c 7.45495,0 13.40625,-6.13816 13.40625,-13.625 l 0,-25.53125 c 0,-7.26633 -6.12998,-12.72477 -13.40625,-13.9375 -4.60599,-0.76672 -9.3851,-1.11504 -13.96875,-1.09375 z m -14.5,8.21875 c 2.76955,0 5.03125,2.29865 5.03125,5.125 0,2.81634 -2.2617,5.09375 -5.03125,5.09375 -2.77948,0 -5.03125,-2.27741 -5.03125,-5.09375 0,-2.82635 2.25177,-5.125 5.03125,-5.125 z"
       id="path1948-9" />
    <path
       inkscape:connector-curvature="0"
       style="fill:url(#linearGradient1475-8);fill-opacity:1"
       d="m 522.00115,356.10386 0,11.90625 c 0,9.23076 -7.82589,17 -16.75,17 l -26.78125,0 c -7.33583,0 -13.40625,6.27849 -13.40625,13.625 l 0,25.53125 c 0,7.26634 6.31859,11.54032 13.40625,13.625 8.48733,2.49561 16.62624,2.94663 26.78125,0 6.75016,-1.95439 13.40625,-5.88761 13.40625,-13.625 l 0,-10.21875 -26.78125,0 0,-3.40625 26.78125,0 13.40625,0 c 7.79247,0 10.69626,-5.4354 13.40625,-13.59375 2.79933,-8.39888 2.68022,-16.47577 0,-27.25 -1.92578,-7.75744 -5.60387,-13.59375 -13.40625,-13.59375 l -10.0625,0 z m -15.0625,64.65625 c 2.77948,10e-6 5.03125,2.27742 5.03125,5.09375 0,2.82635 -2.25177,5.125 -5.03125,5.125 -2.76955,0 -5.03125,-2.29865 -5.03125,-5.125 0,-2.81633 2.2617,-5.09375 5.03125,-5.09375 z"
       id="path1950-8" />
    <path
       inkscape:connector-curvature="0"
       style="fill:url(#linearGradient1475);fill-opacity:1"
       d="m 379.00097,396.72449 -67.20183,0.14134 0.0893,40.0728 67.06549,0.0864 z"
       id="path1950"
       sodipodi:nodetypes="ccccc" />
    <path
       transform="matrix(2.0415044,0,0,2.0415044,-341.86211,-266.235)"
       d="m 350.77549,340.07837 a 2.3991122,2.3991122 0 1 1 -4.79823,0 2.3991122,2.3991122 0 1 1 4.79823,0 z"
       sodipodi:ry="2.3991122"
       sodipodi:rx="2.3991122"
       sodipodi:cy="340.07837"
       sodipodi:cx="348.37637"
       id="path3827"
       style="fill:#ffffff;fill-opacity:1;stroke:none"
       sodipodi:type="arc" />
    <path
       sodipodi:type="arc"
       style="fill:#ffffff;fill-opacity:1;stroke:none"
       id="path3829"
       sodipodi:cx="348.37637"
       sodipodi:cy="340.07837"
       sodipodi:rx="2.3991122"
       sodipodi:ry="2.3991122"
       d="m 350.77549,340.07837 a 2.3991122,2.3991122 0 1 1 -4.79823,0 2.3991122,2.3991122 0 1 1 4.79823,0 z"
       transform="matrix(2.0415044,0,0,2.0415044,-391.61212,-354.87589)" />
  </g>
</svg>
